<svg xmlns="http://www.w3.org/2000/svg" width="96" height="96" viewBox="0 0 96 96" fill="none" role="img" aria-label="Premium fire reaction">
  <title>Premium fire reaction</title>
  <defs>
    <filter id="softShadow" x="-40%" y="-40%" width="180%" height="180%">
      <feDropShadow dx="0" dy="8" stdDeviation="8" flood-color="#111827" flood-opacity="0.16"/>
    </filter>
    <filter id="glow" x="-50%" y="-50%" width="200%" height="200%">
      <feGaussianBlur stdDeviation="4" result="blur"/>
      <feMerge><feMergeNode in="blur"/><feMergeNode in="SourceGraphic"/></feMerge>
    </filter>
  </defs>
  <circle cx="48" cy="48" r="40.32" fill="url(#bg)" filter="url(#softShadow)"/>
  <circle cx="32.64" cy="26.880000000000003" r="11.52" fill="white" opacity="0.22"/>
  <defs><linearGradient id="bg" x1="12" y1="10" x2="86" y2="90" gradientUnits="userSpaceOnUse"><stop stop-color="#F97316"/><stop offset="1" stop-color="#EF4444"/></linearGradient></defs>
  <path d="M50 76c14-5 22-15 19-29-2-9-8-15-15-23 1 10-4 15-9 19-2-7-7-12-13-16 2 11-6 18-8 28-2 12 8 22 26 21Z" fill="white" opacity="0.95"/><path d="M49 70c8-4 11-11 8-19-3 5-7 7-12 9-1-4-4-8-8-10-1 9 3 17 12 20Z" fill="#FDBA74"/>
</svg>