<svg xmlns="http://www.w3.org/2000/svg" width="96" height="96" viewBox="0 0 96 96" fill="none" role="img" aria-label="Premium like reaction">
  <title>Premium like reaction</title>
  <defs>
    <filter id="softShadow" x="-40%" y="-40%" width="180%" height="180%">
      <feDropShadow dx="0" dy="8" stdDeviation="8" flood-color="#111827" flood-opacity="0.16"/>
    </filter>
    <filter id="glow" x="-50%" y="-50%" width="200%" height="200%">
      <feGaussianBlur stdDeviation="4" result="blur"/>
      <feMerge><feMergeNode in="blur"/><feMergeNode in="SourceGraphic"/></feMerge>
    </filter>
  </defs>
  <circle cx="48" cy="48" r="40.32" fill="url(#bg)" filter="url(#softShadow)"/>
  <circle cx="32.64" cy="26.880000000000003" r="11.52" fill="white" opacity="0.22"/>
  <defs><linearGradient id="bg" x1="12" y1="10" x2="86" y2="90" gradientUnits="userSpaceOnUse"><stop stop-color="#6366F1"/><stop offset="1" stop-color="#3B82F6"/></linearGradient></defs>
  <path d="M33 49h9l5-18c1-4 7-3 8 1l1 8h12c4 0 7 4 6 8l-4 18c-1 4-4 7-8 7H43c-6 0-10-4-10-10V49Z" fill="white" opacity="0.94"/><rect x="25" y="47" width="12" height="27" rx="6" fill="#DBEAFE"/>
</svg>