<svg xmlns="http://www.w3.org/2000/svg" width="180" height="180" viewBox="0 0 180 180" fill="none" role="img" aria-label="Premium win sticker">
  <title>Premium win sticker</title>
  <defs>
    <filter id="softShadow" x="-40%" y="-40%" width="180%" height="180%">
      <feDropShadow dx="0" dy="8" stdDeviation="8" flood-color="#111827" flood-opacity="0.16"/>
    </filter>
    <filter id="glow" x="-50%" y="-50%" width="200%" height="200%">
      <feGaussianBlur stdDeviation="4" result="blur"/>
      <feMerge><feMergeNode in="blur"/><feMergeNode in="SourceGraphic"/></feMerge>
    </filter>
  </defs>
  <rect x="18" y="20" width="144" height="140" rx="36" fill="url(#bg)" filter="url(#softShadow)"/>
  <circle cx="54" cy="50" r="24" fill="white" opacity="0.16"/>
  <defs><linearGradient id="bg" x1="24" y1="20" x2="162" y2="160" gradientUnits="userSpaceOnUse"><stop stop-color="#F59E0B"/><stop offset="1" stop-color="#F97316"/></linearGradient></defs>
  <path d="M66 40h48v31c0 23-10 37-24 37S66 94 66 71V40Z" fill="white" opacity="0.94"/><path d="M66 53H47c0 19 10 29 23 31M114 53h19c0 19-10 29-23 31M80 121h20M72 137h36" stroke="#FEF3C7" stroke-width="8" stroke-linecap="round"/>
  <rect x="42" y="124" width="96" height="22" rx="11" fill="white" opacity="0.18"/>
  <text x="90" y="139" text-anchor="middle" font-family="Inter, Arial, sans-serif" font-size="11" font-weight="800" fill="white">WIN UNLOCKED</text>
</svg>