<svg xmlns="http://www.w3.org/2000/svg" width="96" height="96" viewBox="0 0 96 96" fill="none" role="img" aria-label="Premium book emoji">
  <title>Learning status</title>
  <defs>
    <filter id="softShadow" x="-40%" y="-40%" width="180%" height="180%">
      <feDropShadow dx="0" dy="8" stdDeviation="8" flood-color="#111827" flood-opacity="0.16"/>
    </filter>
    <filter id="glow" x="-50%" y="-50%" width="200%" height="200%">
      <feGaussianBlur stdDeviation="4" result="blur"/>
      <feMerge><feMergeNode in="blur"/><feMergeNode in="SourceGraphic"/></feMerge>
    </filter>
  </defs>
  <circle cx="48" cy="48" r="40.32" fill="url(#bg)" filter="url(#softShadow)"/>
  <circle cx="32.64" cy="26.880000000000003" r="11.52" fill="white" opacity="0.22"/>
  <defs><linearGradient id="bg" x1="12" y1="10" x2="86" y2="90" gradientUnits="userSpaceOnUse"><stop stop-color="#8B5CF6"/><stop offset="1" stop-color="#3B82F6"/></linearGradient></defs>
  <path d="M25 33h20c5 0 8 3 8 8v29H33c-5 0-8-3-8-8V33Z" fill="white" opacity="0.92"/><path d="M53 41c0-5 3-8 8-8h10v37H53V41Z" fill="#DBEAFE"/><path d="M35 45h10M35 55h10M60 45h7M60 55h7" stroke="#4F46E5" stroke-width="3" stroke-linecap="round"/>
</svg>